# xmcd
#
# Track frame offsets:
#	150
#	14117
#	34755
#	47663
#	62001
#	82695
#	97097
#	115356
#	134518
#	149820
#	168235
#	186384
#
# Disc length: 2765 seconds
# Revision: 4
# Processed by: cddbd v1.5.2PL0 Copyright (c) Steve Scherf et al.
# Submitted via: dBpowerAMP V12.0
#
DISCID=af0acb0c
DTITLE=Kenny Rogers - Back to the Well
DYEAR=2003
DGENRE=Country
TTITLE0=Back to the Well
TTITLE1=Listen to the Rain
TTITLE2=727 East Magnolia Avenue
TTITLE3=Owe Them More Than That
TTITLE4=Prairie Wedding
TTITLE5=I'm Missing You
TTITLE6=Harder Cards
TTITLE7=Tears in God's Eyes
TTITLE8=Suitcase Full of Blues
TTITLE9=You Have No Idea
TTITLE10=Handprints on the Wall
TTITLE11=Love Like This
EXTD=
EXTT0=
EXTT1=
EXTT2=
EXTT3=
EXTT4=
EXTT5=
EXTT6=
EXTT7=
EXTT8=
EXTT9=
EXTT10=
EXTT11=
PLAYORDER=
